<svg width="800" height="200" version="1.1" xmlns="http://www.w3.org/2000/svg" desc="Created with imagetracer.js version 1.2.6" ><path fill="rgb(0,0,0)" stroke="rgb(0,0,0)" stroke-width="1" opacity="0" d="M 0 0 L 799.5 0 L 800 0.5 L 800 200 L 0.5 200 L 0 199.5 L 0 0 Z M 60 44 L 58 45 L 55 49 L 55 90 L 61 94 L 100 94 L 102 93 L 105 89 L 105 50 L 104 48 L 101 44 L 60 44 Z M 123 44 L 121 45 L 117 50 L 117 90 L 118 92 L 124 95 L 161 95 L 164 94 L 167 90 L 167 49 L 162 44 L 123 44 Z M 516 60 L 516 131 L 522 135 Q 526 134 528 136 L 537 134 L 539 131 L 539 121 L 540 120 L 540 105 L 552 105 L 552 129 L 553 132 L 558 135 Q 563 134 565 136 L 573 134 L 576 130 L 576 60 L 552 60 L 552 87 L 540 87 L 540 60 L 516 60 Z M 654 60 L 654 130 L 655 132 L 660 135 Q 664 134 666 136 L 674 134 L 677 129 L 677 131 Q 680 135 687 137 Q 699 139 705 133 L 709 127 L 711 119 L 711 94 L 707 84 Q 704 79 698 77 L 685 77 L 681 79 L 677 82 L 677 60 L 654 60 Z M 222 61 L 203 129 L 204 133 L 209 135 Q 218 136 224 133 L 227 129 L 228 124 L 229 122 L 246 122 L 248 131 L 256 135 Q 267 137 270 132 L 270 126 L 252 63 L 251 61 L 222 61 Z M 311 77 L 304 80 L 299 87 L 298 79 L 277 79 L 277 131 L 284 135 Q 293 136 297 133 L 299 129 L 299 101 L 300 99 L 305 95 L 315 94 Q 316 96 317 94 L 317 77 L 311 77 Z M 347 77 L 333 82 L 327 90 L 324 104 L 325 119 L 329 129 L 339 135 L 351 136 L 352 137 Q 355 135 363 136 L 373 131 L 378 122 L 378 115 L 360 115 Q 357 116 358 122 L 355 125 L 348 124 L 346 118 L 346 111 L 347 110 L 379 110 L 378 93 L 374 85 Q 370 80 364 78 L 347 77 Z M 421 77 L 415 79 L 409 84 Q 409 79 409 79 L 387 79 L 387 128 L 388 131 L 394 135 L 406 134 L 409 131 L 409 97 L 410 94 L 414 91 L 419 92 L 420 95 L 420 130 L 421 132 L 427 135 Q 436 137 440 133 L 442 130 L 442 88 L 440 84 Q 435 75 421 77 Z M 475 77 L 463 81 Q 457 84 455 91 Q 454 96 456 96 L 474 96 Q 473 91 477 89 Q 482 88 484 90 Q 487 89 485 97 L 481 100 L 468 102 L 457 107 L 452 116 Q 451 125 454 130 L 461 135 L 471 137 L 481 134 L 486 129 L 486 131 L 493 135 Q 502 137 506 133 L 506 91 L 504 86 Q 501 79 493 78 L 475 77 Z M 588 78 L 588 127 L 590 132 L 593 134 L 601 137 Q 616 139 622 130 L 622 132 L 626 135 Q 631 134 633 136 Q 634 134 639 135 L 643 132 L 643 78 L 621 78 L 621 117 L 618 122 Q 612 123 611 120 L 611 78 L 588 78 Z M 63 104 L 60 105 L 56 110 L 56 151 L 62 155 L 100 155 L 104 153 L 106 150 L 106 110 L 104 106 L 100 104 L 63 104 Z M 123 105 L 118 110 L 118 151 L 119 153 L 123 155 L 164 155 L 166 154 L 168 151 L 168 110 L 164 105 L 123 105 Z " /><path fill="rgb(0,0,0)" stroke="rgb(0,0,0)" stroke-width="1" opacity="0" d="M 236.5 77 L 238 79.5 L 243 107 L 231.5 107 L 231 103.5 L 236.5 77 Z " /><path fill="rgb(0,0,0)" stroke="rgb(0,0,0)" stroke-width="1" opacity="0" d="M 349.5 89 Q 355.5 87.5 357 90.5 L 358 100 L 347.5 100 L 346 98.5 L 347 91.5 L 349.5 89 Z " /><path fill="rgb(0,0,0)" stroke="rgb(0,0,0)" stroke-width="1" opacity="0" d="M 680.5 92 Q 685.8 90.8 687 93.5 L 688 95.5 L 688 117.5 L 684.5 122 L 679 121 L 677 113.5 L 677 100.5 L 678 95.5 L 680.5 92 Z " /><path fill="rgb(0,0,0)" stroke="rgb(0,0,0)" stroke-width="1" opacity="0" d="M 484.5 108 L 485 119.5 L 482.5 123 L 477.5 124 L 474 121.5 L 473 116.5 L 476.5 111 L 484.5 108 Z " /><path fill="rgb(22,186,208)" stroke="rgb(22,186,208)" stroke-width="1" opacity="0.4823529411764706" d="M 59.5 44 L 61 44.5 L 56 48.5 L 55.5 50 L 55 48.5 L 57.5 45 L 59.5 44 Z " /><path fill="rgb(22,186,208)" stroke="rgb(22,186,208)" stroke-width="1" opacity="0.4823529411764706" d="M 98.5 44 Q 103.5 43.5 104 47.5 L 105 49.5 L 105 88.5 L 101.5 93 L 99.5 94 L 60.5 94 L 55 89.5 L 55.5 87 L 58.5 92 L 60.5 93 L 99.5 93 L 103 90.5 L 104 88.5 L 104 49.5 L 100.5 45 Q 97.5 45.5 98.5 44 Z " /><path fill="rgb(22,186,208)" stroke="rgb(22,186,208)" stroke-width="1" opacity="0.4823529411764706" d="M 122.5 44 L 162 44.5 L 122.5 45 L 118.5 48 L 120.5 45 L 122.5 44 Z " /><path fill="rgb(22,186,208)" stroke="rgb(22,186,208)" stroke-width="1" opacity="0.4823529411764706" d="M 163.5 45 Q 167.5 45.5 167 50.5 L 166 50.5 L 163.5 45 Z " /><path fill="rgb(22,186,208)" stroke="rgb(22,186,208)" stroke-width="1" opacity="0.4823529411764706" d="M 117.5 49 L 118 51.5 L 117 51.5 L 117.5 49 Z " /><path fill="rgb(22,186,208)" stroke="rgb(22,186,208)" stroke-width="1" opacity="0.4823529411764706" d="M 516 60 L 540 60 L 540 87 L 552 87 L 552 60 L 576 60 L 575.5 130 L 575 61 L 553 61 L 553 88 L 539 88 L 539 61 L 517 61 L 517 130.5 L 520 133.5 L 516 130.5 L 516 60 Z " /><path fill="rgb(22,186,208)" stroke="rgb(22,186,208)" stroke-width="1" opacity="0.4823529411764706" d="M 654 60 L 677 60.5 L 655 61 L 655 129.5 L 658 133.5 L 655 131.5 L 654 129.5 L 654 60 Z " /><path fill="rgb(22,186,208)" stroke="rgb(22,186,208)" stroke-width="1" opacity="0.4823529411764706" d="M 684.5 77 L 688 77.5 Q 680.9 77.9 678 82.5 L 677.5 84 L 677 82.5 L 684.5 77 Z " /><path fill="rgb(22,186,208)" stroke="rgb(22,186,208)" stroke-width="1" opacity="0.4823529411764706" d="M 693.5 77 Q 703.6 76.9 707 83.5 L 710 91.5 L 709 91.5 Q 707.8 83.7 702.5 80 Q 699.6 77.4 693.5 78 L 693.5 77 Z " /><path fill="rgb(22,186,208)" stroke="rgb(22,186,208)" stroke-width="1" opacity="0.4823529411764706" d="M 588 78 L 611 78 L 611 118.5 L 610 118.5 L 610 79 L 589 79 L 588.5 127 L 588 78 Z " /><path fill="rgb(22,186,208)" stroke="rgb(22,186,208)" stroke-width="1" opacity="0.4823529411764706" d="M 621.5 78 L 643 78.5 L 621.5 79 L 621.5 78 Z " /><path fill="rgb(22,186,208)" stroke="rgb(22,186,208)" stroke-width="1" opacity="0.4823529411764706" d="M 117.5 87 L 119 92 L 123.5 94 L 161 94.5 L 123.5 95 L 118 91.5 L 117.5 87 Z " /><path fill="rgb(22,186,208)" stroke="rgb(22,186,208)" stroke-width="1" opacity="0.4823529411764706" d="M 166.5 88 L 167 89.5 L 163.5 94 L 162 93.5 L 165 91.5 L 166.5 88 Z " /><path fill="rgb(22,186,208)" stroke="rgb(22,186,208)" stroke-width="1" opacity="0.4823529411764706" d="M 680.5 91 L 685 91.5 Q 680.4 90.9 679 93.5 L 677.5 100 L 677 95.5 L 680.5 91 Z " /><path fill="rgb(22,186,208)" stroke="rgb(22,186,208)" stroke-width="1" opacity="0.4823529411764706" d="M 686.5 92 L 688 94.5 L 687 94.5 L 686.5 92 Z " /><path fill="rgb(22,186,208)" stroke="rgb(22,186,208)" stroke-width="1" opacity="0.4823529411764706" d="M 710.5 93 L 711 99.5 L 710 99.5 L 710.5 93 Z " /><path fill="rgb(22,186,208)" stroke="rgb(22,186,208)" stroke-width="1" opacity="0.4823529411764706" d="M 688.5 96 L 689 117.5 L 685.5 122 L 687 119.5 L 688 117.5 L 688.5 96 Z " /><path fill="rgb(22,186,208)" stroke="rgb(22,186,208)" stroke-width="1" opacity="0.4823529411764706" d="M 62.5 104 L 99.5 104 L 104 106 L 106 109.5 L 106 149.5 L 103.5 153 L 101.5 154 L 105 149.5 L 105 109.5 L 101.5 106 L 99.5 105 L 62.5 105 L 62.5 104 Z " /><path fill="rgb(22,186,208)" stroke="rgb(22,186,208)" stroke-width="1" opacity="0.4823529411764706" d="M 539 104 L 553 104 L 553 128.5 L 552 128.5 L 552 105 L 540 105 L 539.5 120 L 539 104 Z " /><path fill="rgb(22,186,208)" stroke="rgb(22,186,208)" stroke-width="1" opacity="0.4823529411764706" d="M 59.5 105 L 61 105.5 L 58 107.5 L 56.5 111 L 56 109.5 L 59.5 105 Z " /><path fill="rgb(22,186,208)" stroke="rgb(22,186,208)" stroke-width="1" opacity="0.4823529411764706" d="M 122.5 105 L 125 105.5 L 119 109.5 L 118.5 112 L 118 109.5 L 122.5 105 Z " /><path fill="rgb(22,186,208)" stroke="rgb(22,186,208)" stroke-width="1" opacity="0.4823529411764706" d="M 161.5 105 L 163.5 105 L 168 109.5 L 167.5 111 L 163.5 106 Q 160.5 106.5 161.5 105 Z " /><path fill="rgb(22,186,208)" stroke="rgb(22,186,208)" stroke-width="1" opacity="0.4823529411764706" d="M 710.5 113 L 711 118.5 L 710 118.5 L 710.5 113 Z " /><path fill="rgb(22,186,208)" stroke="rgb(22,186,208)" stroke-width="1" opacity="0.4823529411764706" d="M 677.5 114 L 679 121 L 684 122.5 L 681.5 123 L 678 120.5 L 677.5 114 Z " /><path fill="rgb(22,186,208)" stroke="rgb(22,186,208)" stroke-width="1" opacity="0.4823529411764706" d="M 620.5 117 L 621 119.5 L 618 121.5 L 620.5 117 Z " /><path fill="rgb(22,186,208)" stroke="rgb(22,186,208)" stroke-width="1" opacity="0.4823529411764706" d="M 611.5 120 L 617 122.5 L 614.5 123 L 611.5 120 Z " /><path fill="rgb(22,186,208)" stroke="rgb(22,186,208)" stroke-width="1" opacity="0.4823529411764706" d="M 709.5 120 L 710 123.5 L 704.5 133 Q 699.2 138.7 686.5 137 L 686.5 136 Q 702.3 137.8 707 128.5 L 709.5 120 Z " /><path fill="rgb(22,186,208)" stroke="rgb(22,186,208)" stroke-width="1" opacity="0.4823529411764706" d="M 589.5 128 L 594.5 134 L 599 135.5 L 596.5 136 L 590 131.5 L 589.5 128 Z " /><path fill="rgb(22,186,208)" stroke="rgb(22,186,208)" stroke-width="1" opacity="0.4823529411764706" d="M 621.5 128 L 622 129.5 L 617 133.5 L 621.5 128 Z " /><path fill="rgb(22,186,208)" stroke="rgb(22,186,208)" stroke-width="1" opacity="0.4823529411764706" d="M 676.5 128 L 681.5 134 L 685 135.5 L 683.5 136 L 677 130.5 L 676.5 129 L 673.5 134 L 669.5 135 L 669.5 134 L 675 131.5 L 676.5 128 Z " /><path fill="rgb(22,186,208)" stroke="rgb(22,186,208)" stroke-width="1" opacity="0.4823529411764706" d="M 538.5 129 L 539 130.5 L 536.5 134 L 531.5 135 L 531.5 134 L 537 133 L 538.5 129 Z " /><path fill="rgb(22,186,208)" stroke="rgb(22,186,208)" stroke-width="1" opacity="0.4823529411764706" d="M 642.5 129 L 643 131.5 Q 641.3 134.8 636.5 135 L 636.5 134 L 642 131.5 L 642.5 129 Z " /><path fill="rgb(22,186,208)" stroke="rgb(22,186,208)" stroke-width="1" opacity="0.4823529411764706" d="M 553.5 130 L 555.5 133 L 561 134.5 L 557.5 135 L 553 131.5 L 553.5 130 Z " /><path fill="rgb(22,186,208)" stroke="rgb(22,186,208)" stroke-width="1" opacity="0.4823529411764706" d="M 574.5 131 L 572.5 134 L 568.5 135 L 568.5 134 L 574.5 131 Z " /><path fill="rgb(22,186,208)" stroke="rgb(22,186,208)" stroke-width="1" opacity="0.4823529411764706" d="M 622.5 131 Q 623.9 134.6 629 134.5 L 625.5 135 L 622.5 131 Z " /><path fill="rgb(22,186,208)" stroke="rgb(22,186,208)" stroke-width="1" opacity="0.4823529411764706" d="M 521.5 134 L 524 134.5 L 521.5 135 L 521.5 134 Z " /><path fill="rgb(22,186,208)" stroke="rgb(22,186,208)" stroke-width="1" opacity="0.4823529411764706" d="M 659.5 134 L 662 134.5 L 659.5 135 L 659.5 134 Z " /><path fill="rgb(22,186,208)" stroke="rgb(22,186,208)" stroke-width="1" opacity="0.4823529411764706" d="M 600.5 136 L 611 136.5 L 600.5 137 L 600.5 136 Z " /><path fill="rgb(22,186,208)" stroke="rgb(22,186,208)" stroke-width="1" opacity="0.4823529411764706" d="M 56.5 148 L 59.5 153 L 61.5 154 L 100 154.5 L 61.5 155 L 56 150.5 L 56.5 148 Z " /><path fill="rgb(22,186,208)" stroke="rgb(22,186,208)" stroke-width="1" opacity="0.4823529411764706" d="M 118.5 148 L 122.5 154 L 124 154.5 L 122.5 155 L 119 152.5 L 118.5 148 Z " /><path fill="rgb(22,186,208)" stroke="rgb(22,186,208)" stroke-width="1" opacity="0.4823529411764706" d="M 167.5 149 L 168 150.5 L 165.5 154 L 162.5 155 L 162.5 154 L 167 150.5 L 167.5 149 Z " /><path fill="rgb(0,0,0)" stroke="rgb(0,0,0)" stroke-width="1" opacity="0.984313725490196" d="M 222 61 L 250.5 61 L 252 62.5 L 270 125.5 L 270 131.5 Q 266.7 137.2 255.5 135 L 248 130.5 L 246 122 L 228.5 122 L 228 123.5 L 227 128.5 L 223.5 133 Q 218.4 136.4 208.5 135 L 204 133 L 203 128.5 L 222 61 Z M 237 77 L 231 104 L 232 107 L 243 107 L 238 80 L 237 77 Z " /><path fill="rgb(0,0,0)" stroke="rgb(0,0,0)" stroke-width="1" opacity="0.984313725490196" d="M 310.5 77 L 317 77 L 317 93.5 Q 315.8 96.3 314.5 94 L 304.5 95 L 300 98.5 L 299 100.5 L 299 128.5 L 297 133 Q 293.1 136.3 283.5 135 L 277 130.5 L 277 79 L 298 79 L 298.5 87 L 303.5 80 L 310.5 77 Z " /><path fill="rgb(0,0,0)" stroke="rgb(0,0,0)" stroke-width="1" opacity="0.984313725490196" d="M 346.5 77 L 363.5 78 Q 370.4 79.5 374 84.5 L 378 92.5 L 379 110 L 346.5 110 L 346 110.5 L 346 117.5 L 348 124 L 354.5 125 L 358 121.5 Q 356.8 116.3 359.5 115 L 378 115 L 378 121.5 L 372.5 131 L 362.5 136 Q 355 134.5 351.5 137 L 350.5 136 L 338.5 135 L 329 128.5 L 325 118.5 L 324 103.5 L 327 89.5 L 332.5 82 L 346.5 77 Z M 350 89 L 347 92 L 346 99 L 348 100 L 358 100 L 357 91 Q 356 87 350 89 Z " /><path fill="rgb(0,0,0)" stroke="rgb(0,0,0)" stroke-width="1" opacity="0.984313725490196" d="M 420.5 77 Q 435.3 75.2 440 83.5 L 442 87.5 L 442 129.5 L 439.5 133 Q 435.5 136.5 426.5 135 L 421 131.5 L 420 129.5 L 420 94.5 L 419 92 L 413.5 91 L 410 93.5 L 409 96.5 L 409 130.5 L 405.5 134 L 393.5 135 L 388 130.5 L 387 127.5 L 387 79 L 408.5 79 Q 409.5 79 409 83.5 L 414.5 79 L 420.5 77 Z " /><path fill="rgb(0,0,0)" stroke="rgb(0,0,0)" stroke-width="1" opacity="0.984313725490196" d="M 474.5 77 L 492.5 78 Q 500.6 79.4 504 85.5 L 506 90.5 L 506 132.5 Q 502.1 136.6 492.5 135 L 486 130.5 L 485.5 129 L 480.5 134 L 470.5 137 L 460.5 135 L 454 129.5 Q 451 124.5 452 115.5 L 456.5 107 L 467.5 102 L 480.5 100 L 485 96.5 Q 486.5 89.5 483.5 90 Q 482 87.5 476.5 89 Q 473.2 91 474 96 L 455.5 96 Q 454.4 95.9 455 90.5 Q 456.6 83.6 462.5 81 L 474.5 77 Z M 485 108 L 477 111 L 473 117 L 474 122 L 478 124 L 483 123 L 485 120 L 485 108 Z " /><path fill="rgb(23,186,208)" stroke="rgb(23,186,208)" stroke-width="1" opacity="0.996078431372549" d="M 100.5 45 L 102.5 48 L 100.5 45 Z " /><path fill="rgb(23,186,208)" stroke="rgb(23,186,208)" stroke-width="1" opacity="0.996078431372549" d="M 162.5 45 L 165.5 49 L 162.5 45 Z " /><path fill="rgb(23,186,208)" stroke="rgb(23,186,208)" stroke-width="1" opacity="0.996078431372549" d="M 120.5 46 L 118.5 49 L 120.5 46 Z " /><path fill="rgb(23,186,208)" stroke="rgb(23,186,208)" stroke-width="1" opacity="0.996078431372549" d="M 117.5 52 L 118 86.5 L 117 86.5 L 117.5 52 Z " /><path fill="rgb(23,186,208)" stroke="rgb(23,186,208)" stroke-width="1" opacity="0.996078431372549" d="M 676.5 61 L 677 83.5 L 678 84.5 L 676 85 L 676.5 61 Z " /><path fill="rgb(23,186,208)" stroke="rgb(23,186,208)" stroke-width="1" opacity="0.996078431372549" d="M 688.5 77 L 693 77.5 L 688.5 78 L 688.5 77 Z " /><path fill="rgb(23,186,208)" stroke="rgb(23,186,208)" stroke-width="1" opacity="0.996078431372549" d="M 621.5 79 L 622 116.5 L 621 116.5 L 621.5 79 Z " /><path fill="rgb(23,186,208)" stroke="rgb(23,186,208)" stroke-width="1" opacity="0.996078431372549" d="M 680.5 80 L 678.5 83 L 680.5 80 Z " /><path fill="rgb(23,186,208)" stroke="rgb(23,186,208)" stroke-width="1" opacity="0.996078431372549" d="M 702.5 80 L 705.5 84 L 702.5 80 Z " /><path fill="rgb(23,186,208)" stroke="rgb(23,186,208)" stroke-width="1" opacity="0.996078431372549" d="M 56.5 89 L 58.5 92 L 56.5 89 Z " /><path fill="rgb(23,186,208)" stroke="rgb(23,186,208)" stroke-width="1" opacity="0.996078431372549" d="M 102.5 90 L 101.5 92 L 102.5 90 Z " /><path fill="rgb(23,186,208)" stroke="rgb(23,186,208)" stroke-width="1" opacity="0.996078431372549" d="M 164.5 91 L 163.5 93 L 164.5 91 Z " /><path fill="rgb(23,186,208)" stroke="rgb(23,186,208)" stroke-width="1" opacity="0.996078431372549" d="M 679.5 91 L 678.5 93 L 679.5 91 Z " /><path fill="rgb(23,186,208)" stroke="rgb(23,186,208)" stroke-width="1" opacity="0.996078431372549" d="M 676.5 100 L 677 113.5 L 676 113.5 L 676.5 100 Z " /><path fill="rgb(23,186,208)" stroke="rgb(23,186,208)" stroke-width="1" opacity="0.996078431372549" d="M 710.5 100 L 711 104.5 L 710 104.5 L 710.5 100 Z " /><path fill="rgb(23,186,208)" stroke="rgb(23,186,208)" stroke-width="1" opacity="0.996078431372549" d="M 125.5 105 L 161 105.5 L 125.5 106 L 125.5 105 Z " /><path fill="rgb(23,186,208)" stroke="rgb(23,186,208)" stroke-width="1" opacity="0.996078431372549" d="M 59.5 106 L 58.5 108 L 59.5 106 Z " /><path fill="rgb(23,186,208)" stroke="rgb(23,186,208)" stroke-width="1" opacity="0.996078431372549" d="M 122.5 106 L 119.5 110 L 122.5 106 Z " /><path fill="rgb(23,186,208)" stroke="rgb(23,186,208)" stroke-width="1" opacity="0.996078431372549" d="M 710.5 106 L 711 112.5 L 710 112.5 L 710.5 106 Z " /><path fill="rgb(23,186,208)" stroke="rgb(23,186,208)" stroke-width="1" opacity="0.996078431372549" d="M 118.5 112 L 119 147.5 L 118 147.5 L 118.5 112 Z " /><path fill="rgb(23,186,208)" stroke="rgb(23,186,208)" stroke-width="1" opacity="0.996078431372549" d="M 620.5 120 L 618.5 123 L 617 122.5 L 620.5 120 Z " /><path fill="rgb(23,186,208)" stroke="rgb(23,186,208)" stroke-width="1" opacity="0.996078431372549" d="M 687.5 120 L 685.5 123 L 684 122.5 L 687.5 120 Z " /><path fill="rgb(23,186,208)" stroke="rgb(23,186,208)" stroke-width="1" opacity="0.996078431372549" d="M 675 127 L 677 127.5 L 675 128.5 L 675 127 Z " /><path fill="rgb(23,186,208)" stroke="rgb(23,186,208)" stroke-width="1" opacity="0.996078431372549" d="M 706.5 128 L 705.5 130 L 706.5 128 Z " /><path fill="rgb(23,186,208)" stroke="rgb(23,186,208)" stroke-width="1" opacity="0.996078431372549" d="M 620.5 129 L 616.5 134 L 620.5 129 Z " /><path fill="rgb(23,186,208)" stroke="rgb(23,186,208)" stroke-width="1" opacity="0.996078431372549" d="M 574.5 130 L 572.5 133 L 574.5 130 Z " /><path fill="rgb(23,186,208)" stroke="rgb(23,186,208)" stroke-width="1" opacity="0.996078431372549" d="M 678.5 130 L 681.5 134 L 678.5 130 Z " /><path fill="rgb(23,186,208)" stroke="rgb(23,186,208)" stroke-width="1" opacity="0.996078431372549" d="M 554.5 131 L 555.5 133 L 554.5 131 Z " /><path fill="rgb(23,186,208)" stroke="rgb(23,186,208)" stroke-width="1" opacity="0.996078431372549" d="M 641.5 131 L 640.5 133 L 641.5 131 Z " /><path fill="rgb(23,186,208)" stroke="rgb(23,186,208)" stroke-width="1" opacity="0.996078431372549" d="M 656.5 131 L 658.5 134 L 656.5 131 Z " /><path fill="rgb(23,186,208)" stroke="rgb(23,186,208)" stroke-width="1" opacity="0.996078431372549" d="M 674.5 131 L 673.5 133 L 674.5 131 Z " /><path fill="rgb(23,186,208)" stroke="rgb(23,186,208)" stroke-width="1" opacity="0.996078431372549" d="M 519.5 132 L 520.5 134 L 519.5 132 Z " /><path fill="rgb(23,186,208)" stroke="rgb(23,186,208)" stroke-width="1" opacity="0.996078431372549" d="M 524.5 134 L 527 134.5 L 524.5 135 L 524.5 134 Z " /><path fill="rgb(23,186,208)" stroke="rgb(23,186,208)" stroke-width="1" opacity="0.996078431372549" d="M 565.5 134 L 568 134.5 L 565.5 135 L 565.5 134 Z " /><path fill="rgb(23,186,208)" stroke="rgb(23,186,208)" stroke-width="1" opacity="0.996078431372549" d="M 633.5 134 L 636 134.5 L 633.5 135 L 633.5 134 Z " /><path fill="rgb(23,186,208)" stroke="rgb(23,186,208)" stroke-width="1" opacity="0.996078431372549" d="M 666.5 134 L 669 134.5 L 666.5 135 L 666.5 134 Z " /><path fill="rgb(23,186,208)" stroke="rgb(23,186,208)" stroke-width="1" opacity="0.996078431372549" d="M 57.5 150 L 59.5 153 L 57.5 150 Z " /><path fill="rgb(23,186,208)" stroke="rgb(23,186,208)" stroke-width="1" opacity="1" d="M 63.5 44 L 95.5 44 L 99.5 45 L 104 49.5 L 104 87.5 L 100.5 92 L 98.5 93 L 60.5 93 L 56 88.5 L 55 84.5 L 55 52.5 L 58.5 46 L 63.5 44 Z " /><path fill="rgb(23,186,208)" stroke="rgb(23,186,208)" stroke-width="1" opacity="1" d="M 122.5 45 L 161.5 45 L 166 49.5 L 167 53.5 L 167 85.5 L 166 89.5 L 162.5 93 L 159.5 94 L 124.5 94 L 119 90.5 L 118 88.5 L 118 49.5 L 122.5 45 Z " /><path fill="rgb(23,186,208)" stroke="rgb(23,186,208)" stroke-width="1" opacity="1" d="M 517 61 L 539 61 L 539 88 L 553 88 L 553 61 L 575 61 L 575 129.5 L 570.5 134 L 563.5 135 L 558.5 134 L 554 130.5 L 553 127.5 L 553 104 L 539 104 L 539 126.5 L 538 130.5 L 535.5 133 L 527.5 135 Q 526.3 132.8 521.5 134 L 518 132 L 517 129.5 L 517 61 Z " /><path fill="rgb(23,186,208)" stroke="rgb(23,186,208)" stroke-width="1" opacity="1" d="M 655 61 L 676 61 L 676 84.5 L 678 85 L 682.5 79 Q 687.6 76.6 696.5 78 Q 703 79.5 706 84.5 L 710 94.5 L 710 104.5 L 711 105.5 L 710 106.5 L 709 122.5 L 702.5 133 Q 697.7 137.2 687.5 136 Q 680.3 134.2 677 128.5 Q 677.7 125.9 675 127 Q 676 131.7 672.5 133 L 664.5 135 L 659.5 134 L 656 130.5 L 655 128.5 L 655 61 Z M 680 91 L 677 95 Q 678 99 676 101 L 677 120 Q 678 124 686 123 L 689 119 L 689 96 L 688 94 Q 687 90 680 91 Z " /><path fill="rgb(23,186,208)" stroke="rgb(23,186,208)" stroke-width="1" opacity="1" d="M 589 79 L 610 79 L 610 119.5 L 611 122 Q 613.1 123.6 618.5 123 L 621 120.5 L 622 116.5 L 622 79 L 643 79 L 643 126.5 L 642 130.5 L 639.5 133 L 631.5 135 L 626.5 134 L 623 131.5 L 621.5 128 Q 616.7 137.7 600.5 136 L 591 130.5 L 589 125.5 L 589 79 Z " /><path fill="rgb(23,186,208)" stroke="rgb(23,186,208)" stroke-width="1" opacity="1" d="M 63.5 105 L 98.5 105 L 104 108.5 L 105 110.5 L 105 148.5 L 101.5 153 L 98.5 154 L 62.5 154 L 57 149.5 L 56 145.5 L 56 113.5 L 57 109.5 L 60.5 106 L 63.5 105 Z " /><path fill="rgb(23,186,208)" stroke="rgb(23,186,208)" stroke-width="1" opacity="1" d="M 123.5 106 L 162.5 106 L 166 108.5 L 168 113.5 L 168 146.5 L 164.5 153 L 159.5 155 L 126.5 155 L 120 151.5 L 119 149.5 L 119 110.5 L 123.5 106 Z " /></svg>